<svg width="16" height="10" viewBox="0 0 16 10" fill="none" xmlns="http://www.w3.org/2000/svg">
<g id="Group 661">
<path id="Rectangle 908" d="M14.7177 1.64645C14.913 1.84171 14.913 2.15829 14.7177 2.35355L8.70733 8.36396C8.3168 8.75448 7.68364 8.75449 7.29311 8.36396L6.93956 8.01041C6.7443 7.81515 6.7443 7.49856 6.93956 7.3033L13.3035 0.93934C13.4988 0.744078 13.8154 0.744078 14.0106 0.93934L14.7177 1.64645Z" fill="#434D54"/>
<path id="Rectangle 909" d="M9.06051 7.30367C9.25577 7.49894 9.25577 7.81552 9.06051 8.01078L8.70696 8.36433C8.31643 8.75486 7.68327 8.75486 7.29274 8.36433L1.28233 2.35393C1.08707 2.15866 1.08707 1.84208 1.28233 1.64682L1.98944 0.939712C2.1847 0.74445 2.50129 0.74445 2.69655 0.939712L9.06051 7.30367Z" fill="#434D54"/>
</g>
</svg>
