<svg width="23" height="18" viewBox="0 0 23 18" fill="none" xmlns="http://www.w3.org/2000/svg">
<g id="logo-deformed">
<mask id="mask0_959_21198" style="mask-type:alpha" maskUnits="userSpaceOnUse" x="0" y="0" width="23" height="18">
<rect id="Rectangle 1272" y="0.200195" width="23" height="17.5882" fill="#D9D9D9"/>
</mask>
<g mask="url(#mask0_959_21198)">
<path id="Subtract" fill-rule="evenodd" clip-rule="evenodd" d="M20.4563 0.215135C21.8464 0.471484 23.3233 3.83727 22.6122 7.68572C22.1853 9.99822 21.0655 11.9568 19.9382 13.098C19.7216 13.3168 19.7162 13.6686 19.9307 13.8896C20.748 14.7326 21.3851 15.699 21.7959 16.748C21.9912 17.2478 21.6275 17.7884 21.0912 17.7884H17.4554C16.9305 17.7884 16.5553 17.274 16.5553 16.7491C16.5553 14.4259 14.3082 12.5424 11.5356 12.5424C8.90623 12.5424 6.74955 14.2362 6.53361 16.3925C6.52178 16.5104 6.51575 16.6296 6.51575 16.75C6.51575 16.7539 6.51575 16.7577 6.51577 16.7616C6.50986 17.2822 6.13649 17.7884 5.61572 17.7884H1.97986C1.44356 17.7884 1.07996 17.2478 1.27517 16.748C1.68597 15.699 2.32416 14.7326 3.1404 13.8896C3.35384 13.6686 3.34955 13.3168 3.13289 13.098C2.0056 11.9568 0.885818 9.99822 0.458927 7.68572C-0.252199 3.83727 1.22583 0.471484 2.61483 0.215135C4.00491 -0.0422861 4.67527 3.06071 5.3864 6.90916C5.66527 8.41722 5.90768 9.81481 6.01708 10.9732C6.05248 11.3497 6.43647 11.5889 6.78935 11.4516C8.22018 10.8949 9.83014 10.6868 11.5356 10.6568C13.241 10.6868 14.8509 10.896 16.2818 11.4516C16.6346 11.5889 17.0186 11.3497 17.054 10.9732C17.1634 9.81481 17.4058 8.41722 17.6847 6.90916C18.3958 3.06071 19.0662 -0.0412135 20.4563 0.215135Z" fill="#FD6F6F"/>
</g>
</g>
</svg>
