<svg width="30" height="30" viewBox="0 0 30 30" fill="none" xmlns="http://www.w3.org/2000/svg">
<circle cx="15" cy="15" r="15" fill="#FD6F6F"/>
<mask id="mask0_2018_166" style="mask-type:alpha" maskUnits="userSpaceOnUse" x="11" y="7" width="10" height="16">
<rect x="11" y="7" width="10" height="16" fill="#D9D9D9"/>
</mask>
<g mask="url(#mask0_2018_166)">
<path d="M12.6464 8.28226C12.8417 8.087 13.1583 8.087 13.3536 8.28226L19.364 14.2927C19.7545 14.6832 19.7545 15.3164 19.364 15.7069L19.0104 16.0604C18.8151 16.2557 18.4986 16.2557 18.3033 16.0604L11.9393 9.69648C11.7441 9.50122 11.7441 9.18463 11.9393 8.98937L12.6464 8.28226Z" fill="white"/>
<path d="M18.3037 13.9395C18.4989 13.7442 18.8155 13.7442 19.0108 13.9395L19.3643 14.293C19.7549 14.6836 19.7549 15.3167 19.3643 15.7073L13.3539 21.7177C13.1587 21.9129 12.8421 21.9129 12.6468 21.7177L11.9397 21.0106C11.7445 20.8153 11.7445 20.4987 11.9397 20.3035L18.3037 13.9395Z" fill="white"/>
</g>
</svg>
