<svg width="30" height="30" viewBox="0 0 30 30" fill="none" xmlns="http://www.w3.org/2000/svg">
<circle cx="15" cy="15" r="15" fill="#434D54"/>
<mask id="mask0_863_17034" style="mask-type:alpha" maskUnits="userSpaceOnUse" x="11" y="7" width="10" height="16">
<rect x="11" y="7" width="10" height="16" fill="#D9D9D9"/>
</mask>
<g mask="url(#mask0_863_17034)">
<path d="M12.6464 8.28226C12.8417 8.087 13.1583 8.087 13.3536 8.28226L19.364 14.2927C19.7545 14.6832 19.7545 15.3164 19.364 15.7069L19.0104 16.0604C18.8151 16.2557 18.4986 16.2557 18.3033 16.0604L11.9393 9.69648C11.7441 9.50122 11.7441 9.18463 11.9393 8.98937L12.6464 8.28226Z" fill="white"/>
<path d="M18.3033 13.9391C18.4986 13.7439 18.8151 13.7439 19.0104 13.9391L19.364 14.2927C19.7545 14.6832 19.7545 15.3164 19.364 15.7069L13.3536 21.7173C13.1583 21.9126 12.8417 21.9126 12.6464 21.7173L11.9393 21.0102C11.7441 20.8149 11.7441 20.4983 11.9393 20.3031L18.3033 13.9391Z" fill="white"/>
</g>
</svg>
