<svg width="30" height="22" viewBox="0 0 30 22" fill="none" xmlns="http://www.w3.org/2000/svg">
<path d="M14.3727 6.49305C14.3602 9.80323 14.3709 15.1977 14.3686 18.4691C11.7676 17.3693 9.03614 16.7547 6.22152 16.7948C4.82181 16.7892 2.95604 17.5459 3.07795 15.4268C3.0853 11.1862 3.07288 6.95737 3.07465 2.71651C3.11419 2.34046 3.30502 1.91773 3.64817 1.72307C5.45032 0.815608 8.66841 1.19472 10.6396 1.63556C11.6865 1.87334 12.7025 2.16876 13.6205 2.69584C13.8823 2.84662 14.1256 3.03081 14.3509 3.24869C14.4089 3.28083 14.3501 6.44917 14.3727 6.49305Z" fill="#FFDB85"/>
<path d="M14.6204 6.49448C14.6339 10.0502 14.6223 15.8448 14.6248 19.3589C17.4564 18.1775 20.4302 17.5173 23.4944 17.5603C25.0182 17.5543 27.0495 18.3671 26.9167 16.0909C26.9087 11.5358 26.9223 6.99324 26.9203 2.43781C26.8773 2.03387 26.6695 1.57978 26.296 1.37069C24.334 0.395917 20.8305 0.803145 18.6845 1.27669C17.5447 1.5321 16.4386 1.84944 15.4393 2.41562C15.1542 2.57758 14.8894 2.77544 14.6441 3.00947C14.5809 3.044 14.6449 6.44734 14.6204 6.49448Z" fill="#FFDB85"/>
<path d="M29.9753 4.96884C30.0982 2.97049 29.825 2.41994 27.7172 2.45336C27.6878 2.37963 27.7088 2.2684 27.6741 2.18446C27.4057 1.07724 26.5907 0.393265 25.4976 0.246826C24.9421 0.118756 23.7804 0.0279332 22.9025 0.00216608C20.5532 -0.0376326 18.0123 0.469801 15.9861 1.62396C15.7415 1.74795 15.2823 2.07374 14.9511 2.20538C12.9806 0.909372 10.7547 0.207793 8.40541 0.0498735C6.81614 -0.0230908 5.35992 -0.0514091 3.89254 0.387652C3.31269 0.572359 2.93077 0.918047 2.62158 1.43773C2.44063 1.74795 2.31239 2.07833 2.23713 2.42887C2.23358 2.44494 2.21913 2.45616 2.20266 2.4554C1.45934 2.4207 0.456764 2.42759 0.155433 3.25239C-0.104335 4.08 0.0502588 4.98976 0.00692184 5.84824C0.0135111 10.035 0.0180729 14.6606 0.0117371 18.8657C-0.0369219 20.7947 0.510745 21.0059 2.42897 20.9194C6.45018 20.9118 10.2215 20.9031 12.322 20.9054C12.471 20.9567 12.5708 21.0965 12.7138 21.2052C12.9976 21.4555 13.3217 21.6481 13.6872 21.7744C14.9919 22.2565 16.5157 21.9519 17.5204 20.9947C17.6833 20.8557 17.9144 20.8812 18.1154 20.8957C21.6792 20.9049 25.2863 20.9598 28.8442 20.8814C29.1425 20.8457 29.4606 20.7786 29.6565 20.5505C29.9378 20.2311 29.9542 19.6464 29.9725 19.2599C29.9537 14.7624 29.9943 9.41788 29.975 4.96884H29.9753ZM14.597 4.26241C14.599 4.25986 14.6016 4.25833 14.6041 4.2568C14.6016 4.25859 14.599 4.26012 14.597 4.26241ZM14.6104 4.25272C14.6127 4.2517 14.615 4.25144 14.6173 4.25068C14.615 4.25119 14.6127 4.2517 14.6104 4.25272ZM14.6241 4.2494C14.6264 4.2494 14.6287 4.24991 14.6312 4.25017C14.6289 4.24991 14.6267 4.2494 14.6241 4.2494ZM14.4698 4.53845C14.4698 4.53845 14.4703 4.53743 14.4708 4.53718C14.4706 4.53743 14.47 4.53794 14.4698 4.53845ZM14.4716 4.53641C14.4716 4.53641 14.4723 4.53641 14.4726 4.53641C14.4723 4.53641 14.4718 4.53641 14.4716 4.53641ZM14.4503 13.9577C14.4482 13.9593 14.446 13.9605 14.4434 13.9611C14.446 13.9603 14.4482 13.9593 14.4503 13.9577ZM14.4386 13.9613C14.4386 13.9613 14.4366 13.9616 14.4356 13.9613C14.4366 13.9613 14.4376 13.9613 14.4386 13.9613ZM14.4318 13.9603C14.4318 13.9603 14.4292 13.9598 14.4282 13.959C14.4295 13.9598 14.4308 13.9598 14.4318 13.9603ZM14.4257 13.9572C14.4257 13.9572 14.4232 13.9554 14.4221 13.9542C14.4232 13.9554 14.4244 13.9565 14.4257 13.9572ZM26.9093 5.17702C26.9093 5.17702 26.9108 5.17651 26.9115 5.176C26.9108 5.17651 26.9103 5.17676 26.9093 5.17702ZM26.9131 5.17421C26.9131 5.17421 26.9143 5.17217 26.9143 5.17064C26.9143 5.17192 26.9143 5.17319 26.9131 5.17421ZM29.9621 13.3342C29.9621 13.3342 29.9626 13.3337 29.9626 13.3335C29.9624 13.3342 29.9618 13.335 29.9618 13.3358C29.9618 13.3352 29.9618 13.3347 29.9618 13.3342H29.9621ZM29.9646 13.3312C29.9646 13.3312 29.9639 13.3317 29.9634 13.3319C29.9636 13.3314 29.9641 13.3314 29.9646 13.3312ZM21.0377 1.2895C22.1696 1.1099 26.0894 0.985143 26.6766 2.04415C27.0745 3.02661 26.8925 4.14455 26.8877 5.17192C26.912 6.42966 26.9204 14.643 26.8816 15.7533C26.8781 17.2952 25.3892 16.8454 24.4842 16.8327C22.1417 16.7105 20.0909 16.9493 17.7393 17.6825C16.9973 17.9195 16.2778 18.204 15.5986 18.457C15.5965 14.6754 15.6044 8.29994 15.5846 4.52289C15.5692 4.12261 15.558 3.71901 15.5927 3.32179C15.6495 3.12662 15.8462 3.04753 16.0327 2.8891C17.5059 1.95001 19.3549 1.57217 21.0377 1.2895ZM3.07421 2.71664C3.2174 1.4191 4.61685 1.34665 5.71827 1.22368C7.9249 1.0451 10.1082 1.4015 12.2256 2.07502C13.0273 2.37555 13.7919 2.65414 14.3679 3.29015C14.3763 7.06184 14.3654 12.7541 14.3659 16.526C14.3517 16.5352 14.395 18.4917 14.354 18.4787C13.2371 17.9932 12.288 17.6718 11.1405 17.373C9.4313 16.9633 7.94619 16.7857 6.22108 16.7949C5.21571 16.7299 3.64038 17.4036 3.1733 16.263C3.07523 16.0505 3.08055 15.626 3.07751 15.427C3.08486 11.1864 3.07244 6.9575 3.07421 2.71664Z" fill="#526FD3"/>
</svg>
