<svg width="10" height="16" viewBox="0 0 10 16" fill="none" xmlns="http://www.w3.org/2000/svg">
<path d="M1.64645 1.28226C1.84171 1.087 2.15829 1.087 2.35355 1.28226L8.36396 7.29267C8.75448 7.6832 8.75449 8.31636 8.36396 8.70689L8.01041 9.06044C7.81515 9.2557 7.49856 9.2557 7.3033 9.06044L0.93934 2.69648C0.744078 2.50122 0.744078 2.18463 0.93934 1.98937L1.64645 1.28226Z" fill="#69AF43"/>
<path d="M7.30331 6.939C7.49857 6.74374 7.81515 6.74374 8.01041 6.939L8.36397 7.29256C8.75449 7.68308 8.75449 8.31625 8.36397 8.70677L2.35356 14.7172C2.1583 14.9124 1.84171 14.9124 1.64645 14.7172L0.939346 14.0101C0.744084 13.8148 0.744084 13.4982 0.939346 13.303L7.30331 6.939Z" fill="#69AF43"/>
</svg>
