<svg width="20" height="20" viewBox="0 0 20 20" fill="none" xmlns="http://www.w3.org/2000/svg">
<mask id="mask0_850_14746" style="mask-type:alpha" maskUnits="userSpaceOnUse" x="0" y="0" width="20" height="20">
<rect width="20" height="20" fill="#D9D9D9"/>
</mask>
<g mask="url(#mask0_850_14746)">
<path d="M7.51415 17.9487C7.78559 17.9487 8.04591 18.0568 8.23784 18.2491C8.42977 18.4415 8.5376 18.7023 8.5376 18.9744C8.5376 19.2464 8.42977 19.5073 8.23784 19.6996C8.04591 19.8919 7.78559 20 7.51415 20C7.24271 20 6.98239 19.8919 6.79046 19.6996C6.59852 19.5073 6.4907 19.2464 6.4907 18.9744C6.4907 18.7023 6.59852 18.4415 6.79046 18.2491C6.98239 18.0568 7.24271 17.9487 7.51415 17.9487ZM14.6783 17.9487C14.9498 17.9487 15.2101 18.0568 15.402 18.2491C15.5939 18.4415 15.7018 18.7023 15.7018 18.9744C15.7018 19.2464 15.5939 19.5073 15.402 19.6996C15.2101 19.8919 14.9498 20 14.6783 20C14.4069 20 14.1466 19.8919 13.9546 19.6996C13.7627 19.5073 13.6549 19.2464 13.6549 18.9744C13.6549 18.7023 13.7627 18.4415 13.9546 18.2491C14.1466 18.0568 14.4069 17.9487 14.6783 17.9487ZM0.55467 0.410334C0.704187 0.210514 0.921323 0.0722341 1.16534 0.0214382C1.40936 -0.0293576 1.66348 0.0108218 1.88004 0.134438L1.9875 0.206232L3.73556 1.51905C4.03304 1.74273 4.26409 2.04341 4.40388 2.38879L4.46528 2.56417H17.6126C17.89 2.5641 18.1646 2.62056 18.4196 2.73013C18.6746 2.83969 18.9048 3.00007 19.096 3.20152C19.2873 3.40296 19.4357 3.64127 19.5322 3.90197C19.6287 4.16266 19.6713 4.4403 19.6574 4.71801L19.6441 4.8698L19.1764 8.61851C19.036 9.74663 18.5256 10.796 17.7253 11.6018C16.9249 12.4075 15.8801 12.9239 14.7551 13.0698L14.5238 13.0934L7.03927 13.719L7.30536 14.8718H16.2135C16.4744 14.8721 16.7253 14.9722 16.9149 15.1517C17.1046 15.3311 17.2188 15.5764 17.2341 15.8373C17.2493 16.0983 17.1646 16.3553 16.9972 16.5557C16.8298 16.7562 16.5923 16.885 16.3332 16.9159L16.2135 16.9231H7.30536C6.87101 16.9232 6.4479 16.7848 6.09723 16.5279C5.74655 16.2711 5.48649 15.9091 5.35466 15.4944L5.31066 15.3334L2.50639 3.15904L0.759361 1.84623C0.542212 1.68302 0.398653 1.44005 0.360266 1.17076C0.321879 0.901481 0.391808 0.627947 0.55467 0.410334Z" fill="#434D54"/>
</g>
</svg>
