<svg width="20" height="20" viewBox="0 0 20 20" fill="none" xmlns="http://www.w3.org/2000/svg">
<circle cx="10" cy="10" r="9.25" stroke="#434D54" stroke-width="1.5"/>
<circle cx="10" cy="7" r="3.5" fill="#434D54"/>
<path d="M10 11.7998C11.8636 11.7998 13.5583 12.355 14.8051 13.1374C15.4273 13.5278 15.9593 13.9886 16.3436 14.4894C16.7216 14.9814 17 15.5702 17 16.1998C17 16.8758 16.6803 17.4086 16.2199 17.7886C15.7843 18.1486 15.2096 18.387 14.599 18.5534C13.3717 18.887 11.7337 18.9998 10 18.9998C8.26633 18.9998 6.62833 18.8878 5.401 18.5534C4.79044 18.387 4.21567 18.1486 3.78011 17.7886C3.31889 17.4078 3 16.8758 3 16.1998C3 15.5702 3.27844 14.9814 3.65644 14.4886C4.04067 13.9886 4.57189 13.5286 5.19489 13.1366C6.44167 12.3558 8.13722 11.7998 10 11.7998Z" fill="#434D54"/>
</svg>
