<svg width="10" height="16" viewBox="0 0 10 16" fill="none" xmlns="http://www.w3.org/2000/svg">
<mask id="mask0_2242_553" style="mask-type:alpha" maskUnits="userSpaceOnUse" x="0" y="0" width="10" height="16">
<rect width="10" height="16" fill="#D9D9D9"/>
</mask>
<g mask="url(#mask0_2242_553)">
<path d="M1.64645 1.28226C1.84171 1.087 2.15829 1.087 2.35355 1.28226L8.36396 7.29267C8.75448 7.6832 8.75449 8.31636 8.36396 8.70689L8.01041 9.06044C7.81515 9.2557 7.49856 9.2557 7.3033 9.06044L0.93934 2.69648C0.744078 2.50122 0.744078 2.18463 0.93934 1.98937L1.64645 1.28226Z" fill="#434D54"/>
<path d="M7.30367 6.939C7.49894 6.74374 7.81552 6.74374 8.01078 6.939L8.36433 7.29256C8.75486 7.68308 8.75486 8.31625 8.36433 8.70677L2.35393 14.7172C2.15866 14.9124 1.84208 14.9124 1.64682 14.7172L0.939712 14.0101C0.74445 13.8148 0.74445 13.4982 0.939712 13.303L7.30367 6.939Z" fill="#434D54"/>
</g>
</svg>
