<svg width="219" height="185" viewBox="0 0 219 185" fill="none" xmlns="http://www.w3.org/2000/svg">
<mask id="mask0_1499_785" style="mask-type:alpha" maskUnits="userSpaceOnUse" x="0" y="0" width="219" height="185">
<rect width="219" height="185" fill="#D9D9D9"/>
</mask>
<g mask="url(#mask0_1499_785)">
<path d="M111.819 52.3618L150.743 52.3599C150.743 52.3599 150.033 63.3244 151.607 76.3119C153.842 87.9376 160.728 123.588 155.189 126.587C155.189 126.587 146.747 123.189 136.741 119.616C137.252 115.831 135.94 112.663 135.94 112.663C135.94 112.663 134.792 118.925 134.397 118.786C132.124 117.989 129.774 117.186 127.45 116.425C122.951 114.95 117.598 113.793 112.468 112.906C112.021 112.829 111.657 108.336 111.657 108.336C111.657 108.336 110.115 112.514 109.605 112.434C100.61 111.018 92.9679 110.446 92.9679 110.446L111.819 52.3618Z" fill="#FD6F6F"/>
<path d="M101.431 64.206C101.431 64.206 108.69 71.6751 116.848 79.7947C125.005 87.9142 87.2616 149.253 87.2616 149.253C93.4362 155.107 100.483 151.016 107.339 152.561C114.233 155.021 115.139 161.493 115.14 166.18C115.14 175.726 65.9075 170.255 65.9075 170.255C57.5088 153.175 94.0743 74.3765 101.431 64.2051V64.206Z" fill="#FFBDA8"/>
<path d="M102.911 39.9292L70.2802 39.9292L70.2802 72.4075L102.911 72.4075L102.911 39.9292Z" fill="#FFBDA8"/>
<path d="M60.3196 66.5627C68.759 62.0437 71.4411 56.3644 71.4411 56.3644L81.7047 52.0024C81.7047 52.0024 79.9947 60.919 81.7056 65.2202C83.037 66.4934 79.0536 86.6473 77.8703 80.7877C77.8703 80.7877 72.7976 85.6324 66.1166 83.0486C59.4346 80.4658 42.917 72.5312 42.917 72.5312C42.917 72.5312 51.8802 71.0818 60.3206 66.5637L60.3196 66.5627Z" fill="#FD6F6F"/>
<path d="M75.8106 27.0961C84.25 22.577 86.9321 16.8977 86.9321 16.8977L96.5315 16.436L98.4118 29.2568C98.4118 29.2568 88.2886 46.1657 81.6066 43.5819C74.9256 40.9991 58.407 33.0645 58.407 33.0645C58.407 33.0645 67.3703 31.6151 75.8106 27.097V27.0961Z" fill="#FD6F6F"/>
<path d="M59.1463 79.1555L93.5758 76.1611L87.5174 107.392L59.1473 107.392L59.1463 79.1555Z" fill="#FFBDA8"/>
<path d="M92.1327 30.5821L109.15 25.375L137.578 25.375L141.711 49.2634C133.75 55.9191 127.8 54.9717 120.07 58.2706C90.7509 77.5456 80.436 52.4014 92.1327 30.5821Z" fill="#FFE4DE"/>
<path d="M107.967 0.895206C143.776 -6.85815 154.036 37.7962 150.452 56.0216C138.013 57.8643 130.744 45.6353 132.757 34.8693C132.757 34.8693 122.723 37.6603 114.657 35.3598C106.59 33.0593 106.57 27.9679 101.475 24.6882C94.4288 20.1538 86.5733 17.49 86.5733 17.49C86.5733 17.49 94.2933 3.44239 107.966 0.896169L107.967 0.895206Z" fill="#FD6F6F"/>
<path d="M104.858 15.5587C111.231 18.0249 107.519 26.9579 106.176 29.3538L92.3105 31.4981C92.3105 31.4981 89.3931 24.4714 91.8941 20.2483C94.3951 16.0252 100.463 13.9762 104.859 15.5577L104.858 15.5587Z" fill="#FFE4DE"/>
<path d="M73.6397 73.3944C84.492 61.308 101.883 58.8774 116.573 63.0755C120.881 64.0267 121.161 66.6886 122.551 67.6678C124.352 68.938 126.258 68.3453 126.41 71.1325C126.561 73.9187 120.205 73.3925 120.205 73.3925L103.939 105.462C103.939 105.462 96.7338 73.8454 76.6191 78.3134C70.551 72.6003 70.6275 76.5343 73.6407 73.3944H73.6397Z" fill="#FFE4DE"/>
<path d="M10.6731 89.4694C20.8321 89.4665 51.6906 89.0444 61.229 90.8871C70.0954 92.6132 79.322 104.23 81.9402 110.907L70.4527 134.073C70.4527 134.073 60.2075 135.592 51.557 139.368C45.3601 142.074 37.6915 146.209 30.1749 146.549C21.6967 146.934 5.87435 138.019 0.999141 123.75C-3.87607 109.481 10.674 89.4704 10.674 89.4704L10.6731 89.4694Z" fill="#FD6F6F"/>
<path d="M61.5672 75.397L94.1977 75.397L82.2551 83.5243C79.9758 84.8562 61.2903 103.415 55.4439 107.371C47.3357 112.374 39.9856 111.904 36.8116 108.746C28.654 100.626 61.5662 75.397 61.5662 75.397H61.5672Z" fill="#FFE4DE"/>
<path d="M96.5985 64.5806C96.5985 64.5806 113.94 66.6276 122.099 74.7472C130.257 82.8667 82.4289 149.627 82.4289 149.627C88.6035 155.481 95.6506 151.39 102.506 152.935C109.4 155.396 110.306 161.867 110.307 166.555C110.307 174.998 71.7935 171.693 62.8942 170.817C61.6829 170.698 60.6691 169.842 60.368 168.668C55.1403 148.246 89.4934 74.4041 96.5985 64.5806Z" fill="#FFE4DE"/>
<path d="M28.8743 52.551C38.6053 42.8654 54.3532 28.5065 66.438 33.9285C78.5229 39.3506 49.2707 99.8769 49.2707 99.8769L8.62109 95.5275C8.62109 95.5275 19.1432 62.2367 28.8743 52.551Z" fill="#FD6F6F"/>
<path d="M55.8376 38.9325C64.6062 31.6928 74.1117 34.9493 82.2703 43.0679C95.7892 53.0273 49.845 118.723 36.2255 108.265C25.5852 97.5081 46.8454 68.7614 47.8591 63.2555C49.2709 55.5899 50.7165 43.1595 55.8376 38.9315V38.9325Z" fill="#FFE4DE"/>
<path d="M114.861 44.9969C115.518 46.6294 111.547 48.1984 110.901 46.562C110.244 44.9294 114.215 43.3604 114.861 44.9969Z" fill="#434D54"/>
<path d="M120 54C120.64 55.107 116.701 56.6403 116.071 55.5307C115.431 54.4236 119.371 52.8903 120 54Z" fill="#434D54"/>
<rect x="37.1201" y="166.737" width="120.879" height="13.2631" rx="3" fill="#FD6F6F"/>
<path d="M42.1211 180L152.121 180V181C152.121 182.657 150.778 184 149.121 184L45.1211 184C43.4642 184 42.1211 182.657 42.1211 181V180Z" fill="#E75050"/>
<path d="M119 166C119 165.448 119.448 165 120 165H151C151.552 165 152 165.448 152 166V166.73L119 166.733V166Z" fill="white"/>
<path d="M184.724 49.4253C183.25 48.4773 181.83 47.4125 180.47 46.2668C179.774 45.68 179.101 45.0527 178.452 44.385C177.766 43.6794 177.158 42.9282 176.628 42.1315C176.318 41.6637 176.079 41.2575 175.911 40.913C175.816 40.7159 175.728 40.4569 175.649 40.136C175.568 39.8037 175.525 39.504 175.52 39.2367C175.504 38.2907 175.916 37.459 176.658 36.8648C177.002 36.5891 177.35 36.3933 177.701 36.2774C178.533 36.0019 179.384 35.8547 180.253 35.8359C181.711 35.8038 183.13 35.9366 184.509 36.2345C186.915 36.7552 189.285 37.4843 191.634 38.424C196.696 40.4496 201.437 43.046 205.855 46.2134C206.982 47.0212 208.064 47.9005 209.1 48.8516C209.498 49.2166 210.055 49.7521 210.77 50.4579C211.289 50.9695 211.74 51.4935 212.122 52.0299C212.752 52.912 213.167 53.5171 213.368 53.8452C213.68 54.3543 213.942 54.8978 214.155 55.4755C214.157 55.4814 214.16 55.4867 214.165 55.4909C214.169 55.4952 214.175 55.4983 214.181 55.4999C214.187 55.5016 214.193 55.5018 214.199 55.5006C214.205 55.4993 214.211 55.4966 214.216 55.4927C214.93 54.9354 215.382 54.1994 215.569 53.2847C215.657 52.8588 215.709 52.466 215.726 52.1062C215.742 51.7825 215.711 51.3978 215.634 50.9519C215.494 50.1427 215.336 49.3314 215.041 48.5802C214.655 47.5963 214.213 46.6838 213.716 45.8427C212.629 44.003 211.319 42.2974 209.784 40.7257C209.453 40.3864 209.186 40.1158 208.984 39.9139C208.24 39.1703 207.442 38.4732 206.591 37.8225C205.546 37.0241 204.784 36.4514 204.303 36.1046C201.91 34.3788 199.351 32.8694 196.626 31.5762C195.552 31.0666 194.538 30.63 193.586 30.2664C192.278 29.7667 190.708 29.2649 188.876 28.7608C187.374 28.3471 185.875 28.0454 184.381 27.8557C183.971 27.8037 183.661 27.6369 183.45 27.3553C183.048 26.8187 183.165 26.0682 183.693 25.6388C183.894 25.4748 184.149 25.3891 184.456 25.3819C184.635 25.3779 184.939 25.4088 185.368 25.4746C186.676 25.6751 187.937 25.9352 189.152 26.255C190.835 26.6981 192.406 27.1838 193.865 27.7121C195.081 28.1525 196.342 28.6825 197.648 29.302C200.639 30.721 203.432 32.3825 206.028 34.2866C206.9 34.9263 207.774 35.5926 208.651 36.2856C209.708 37.1216 210.602 38.0108 211.601 39.041C213.13 40.6176 214.469 42.3455 215.618 44.2246C216.21 45.1941 216.707 46.2042 217.156 47.2715C217.33 47.6848 217.463 48.0533 217.555 48.3769C217.784 49.1824 217.962 50.0337 218.09 50.9306C218.208 51.7593 218.155 52.5603 218.009 53.42C217.941 53.819 217.847 54.1948 217.727 54.5476C217.203 56.0912 216.221 57.2468 214.782 58.0146C214.772 58.0198 214.764 58.0277 214.759 58.0375C214.753 58.0473 214.751 58.0585 214.751 58.0698C214.761 58.2715 214.761 58.452 214.754 58.6115C214.675 60.3171 213.955 61.6069 212.592 62.481C212.295 62.6715 211.913 62.8626 211.446 63.0544C211.138 63.1812 210.774 63.2889 210.355 63.3775C209.314 63.5973 208.308 63.6946 207.338 63.6695C204.459 63.5959 201.65 63.1915 198.912 62.4564C198.813 62.4299 198.71 62.4072 198.604 62.3885C198.585 62.385 198.572 62.3925 198.564 62.411C198.17 63.3895 197.485 64.0859 196.51 64.5001C195.322 65.0051 193.98 65.0389 192.713 64.856C191.913 64.7414 191.273 64.6148 190.791 64.4762C190.767 64.4691 190.761 64.4768 190.773 64.4992C190.948 64.8296 191.082 65.1073 191.173 65.3324C191.479 66.0844 191.475 66.9712 191.082 67.6947C190.812 68.1905 190.424 68.5432 189.917 68.7526C188.933 69.1596 187.907 69.2772 186.841 69.1055C186.822 69.1024 186.815 69.1106 186.82 69.13C187.022 69.8892 186.841 70.5248 186.275 71.0367C186.028 71.2613 185.703 71.4286 185.301 71.5388C184.768 71.6847 184.221 71.7443 183.661 71.7175C183.64 71.7163 183.629 71.7265 183.627 71.748C183.567 72.5403 183.198 73.1236 182.522 73.4979C182.521 73.4984 182.422 73.5474 182.224 73.6448C182.166 73.6738 182.129 73.7059 182.116 73.7411C182.103 73.7737 182.092 73.8067 182.085 73.84C181.976 74.2944 181.576 74.6386 181.155 74.7693C180.182 75.0711 179.299 74.2365 179.637 73.2095C179.726 72.9389 179.74 72.5869 179.891 72.3167C180.064 72.0115 180.315 71.7857 180.646 71.6393C180.775 71.5822 180.84 71.5534 180.841 71.5529C180.86 71.5421 180.863 71.5302 180.85 71.5172C180.543 71.21 180.337 70.8215 180.346 70.3829C180.359 69.7855 180.748 69.2614 181.327 69.1303C181.486 69.0941 181.741 69.0902 182.092 69.1185C182.68 69.1652 183.216 69.2054 183.701 69.2393C183.709 69.2398 183.71 69.2379 183.703 69.2337C183.272 68.9589 182.794 68.646 182.269 68.295C181.766 67.9595 181.507 67.4559 181.659 66.8542C181.71 66.6501 181.806 66.4748 181.946 66.3283C182.268 65.9906 182.679 65.8711 183.181 65.9699C184.574 66.2435 185.873 66.4642 187.078 66.6321C187.413 66.6785 187.693 66.6996 187.92 66.6954C188.241 66.6888 188.583 66.6181 188.944 66.4832C188.954 66.4795 188.962 66.4721 188.966 66.4625C188.971 66.4529 188.971 66.442 188.968 66.4321C188.92 66.2931 188.862 66.1564 188.796 66.022C188.528 65.4792 188.215 64.9933 187.858 64.5642C187.326 63.9262 186.765 63.3555 186.175 62.852C186.102 62.79 186.014 62.7353 185.911 62.688C184.569 62.0724 183.434 61.456 182.506 60.8387C181.994 60.4985 181.504 59.9199 181.639 59.2294C181.797 58.4246 182.503 58.0259 183.268 58.1676C183.635 58.2354 184.052 58.398 184.52 58.6554C185.228 59.0447 185.922 59.4965 186.6 60.0107C186.815 60.1737 187.021 60.3299 187.216 60.479C187.32 60.5587 187.472 60.6412 187.542 60.6697C188.719 61.1447 189.751 61.5343 190.637 61.8386C191.322 62.0739 192.107 62.2546 192.99 62.3806C193.801 62.4965 194.591 62.5253 195.388 62.2927C195.729 62.1932 196.006 62.0065 196.22 61.7326C196.223 61.7287 196.225 61.7242 196.226 61.7194C196.227 61.7145 196.227 61.7096 196.225 61.7049C196.224 61.7002 196.222 61.696 196.218 61.6925C196.215 61.689 196.211 61.6865 196.206 61.685C194.276 61.0624 192.422 60.3452 190.644 59.5335C189.292 58.9164 187.9 58.156 186.467 57.2523C186.124 57.0352 185.812 56.8227 185.531 56.6146C184.792 56.0654 184.081 55.4803 183.398 54.8593C182.944 54.4475 182.464 53.95 182.128 53.5007C181.755 53.0023 181.493 52.4886 181.342 51.9594C181.113 51.1593 181.285 50.4747 181.856 49.9056C182.087 49.6752 182.404 49.505 182.806 49.3949C183.411 49.2297 184.114 49.3175 184.722 49.4313C184.733 49.4335 184.734 49.4315 184.724 49.4253ZM211.859 56.3003C211.623 55.7382 211.367 55.2569 211.092 54.8564C210.601 54.14 210.224 53.6077 209.961 53.2594C209.77 53.0063 209.552 52.7554 209.308 52.5067C208.612 51.7953 207.872 51.0849 207.089 50.3754C206.802 50.1149 206.515 49.8679 206.228 49.6343C205.302 48.8794 204.311 48.1427 203.257 47.4243C200.396 45.4744 197.39 43.7555 194.237 42.2677C192.181 41.2976 190.161 40.4798 188.176 39.8143C186.91 39.3896 185.578 39.0226 184.182 38.7134C183.166 38.4885 182.211 38.3617 181.317 38.333C180.813 38.3164 180.436 38.3124 180.185 38.3213C179.781 38.3351 179.362 38.3924 178.93 38.4931C178.622 38.5652 178.42 38.6307 178.324 38.6896C178.149 38.7969 177.946 38.9249 177.951 39.1205C177.959 39.4426 178.059 39.7657 178.252 40.0899C178.676 40.8052 179.162 41.4752 179.71 42.0998C180.244 42.7087 180.912 43.3628 181.714 44.0619C183.888 45.9582 186.22 47.5275 188.857 49.0757C191.68 50.7345 194.597 52.1881 197.607 53.4365C197.935 53.5726 198.285 53.7113 198.658 53.8523C200.115 54.4044 201.625 54.9276 203.187 55.4219C203.79 55.6128 204.386 55.7738 204.974 55.9048C205.8 56.0886 206.582 56.2396 207.32 56.358C208.129 56.4876 209.02 56.5539 209.993 56.5571C210.551 56.5591 211.173 56.5069 211.859 56.4006C211.862 56.4 211.866 56.3985 211.87 56.3963C211.873 56.3941 211.876 56.3912 211.878 56.3878C211.88 56.3843 211.882 56.3805 211.882 56.3765C211.883 56.3724 211.883 56.3683 211.882 56.3645C211.876 56.3436 211.868 56.3222 211.859 56.3003ZM195.238 55.1384C195.993 55.8111 196.674 56.5373 197.28 57.317C197.701 57.8583 198.052 58.4426 198.335 59.07C198.436 59.2935 198.517 59.5181 198.58 59.7437C198.585 59.7602 198.594 59.7751 198.605 59.7871C198.617 59.7991 198.632 59.8077 198.648 59.8122C199.878 60.1586 201.096 60.442 202.302 60.6626C203.845 60.9451 205.462 61.1166 207.151 61.1771C208.147 61.2122 209.097 61.1297 210.054 60.9069C210.518 60.7986 210.96 60.6106 211.381 60.3428C211.915 60.0028 212.222 59.5095 212.302 58.8627C212.305 58.8432 212.296 58.8351 212.277 58.8385C211.563 58.9624 210.861 59.0298 210.173 59.0405C208.89 59.0599 207.595 58.9503 206.29 58.7119C204.99 58.4741 203.674 58.1933 202.476 57.813C201.185 57.4037 199.889 56.9612 198.585 56.4855C197.407 56.056 196.292 55.605 195.242 55.1324C195.227 55.1253 195.225 55.1273 195.238 55.1384ZM195.202 58.7077C195.204 58.7085 195.206 58.7087 195.209 58.7081C195.211 58.7076 195.213 58.7063 195.215 58.7045C195.216 58.7027 195.217 58.7005 195.218 58.6981C195.218 58.6957 195.218 58.6933 195.217 58.6911C195.215 58.6869 195.213 58.6822 195.208 58.6768C194.663 58.0033 194.01 57.3398 193.249 56.6863C192.502 56.0452 191.724 55.4625 190.914 54.938C189.318 53.9051 187.666 53.0505 185.956 52.3742C185.534 52.2074 185.094 52.064 184.638 51.9441C184.505 51.9096 184.296 51.873 184.01 51.8344C183.991 51.8317 183.986 51.8391 183.995 51.8566C184.025 51.9154 184.098 52.0126 184.214 52.1482C184.5 52.4819 184.775 52.7683 185.039 53.0074C186.262 54.1162 187.516 55.035 188.8 55.7638C190.382 56.6628 191.804 57.3677 193.068 57.8784C193.882 58.2075 194.594 58.4839 195.202 58.7077Z" fill="#557AF6" stroke="#557AF6"/>
</g>
</svg>
