<svg width="40" height="40" viewBox="0 0 40 40" fill="none" xmlns="http://www.w3.org/2000/svg">
<circle cx="20" cy="20" r="20" fill="#FD6F6F"/>
<path d="M20.0175 28.3836C18.4975 28.3836 17.1375 28.0236 15.9375 27.3036C14.7535 26.5836 13.8255 25.5676 13.1535 24.2556C12.4815 22.9276 12.1455 21.3756 12.1455 19.5996C12.1455 17.8076 12.4815 16.2556 13.1535 14.9436C13.8255 13.6156 14.7535 12.5916 15.9375 11.8716C17.1375 11.1356 18.4975 10.7676 20.0175 10.7676C21.5375 10.7676 22.8815 11.1356 24.0495 11.8716C25.2335 12.5916 26.1615 13.6156 26.8335 14.9436C27.5215 16.2556 27.8655 17.8076 27.8655 19.5996C27.8655 20.4636 27.7775 21.2796 27.6015 22.0476C27.4415 22.7996 27.2015 23.4956 26.8815 24.1356L29.4495 26.1036L27.6735 28.3596L25.2015 26.4396C24.5295 27.0636 23.7535 27.5436 22.8735 27.8796C22.0095 28.2156 21.0575 28.3836 20.0175 28.3836ZM20.0175 25.6956C20.5775 25.6956 21.1055 25.6076 21.6015 25.4316C22.0975 25.2396 22.5375 24.9836 22.9215 24.6636L20.6655 22.8876L22.3695 20.7036L24.5055 22.3596C24.6495 21.9596 24.7615 21.5276 24.8415 21.0636C24.9215 20.5996 24.9615 20.1116 24.9615 19.5996C24.9615 18.3676 24.7535 17.2956 24.3375 16.3836C23.9375 15.4556 23.3695 14.7436 22.6335 14.2476C21.8975 13.7356 21.0255 13.4796 20.0175 13.4796C19.0255 13.4796 18.1535 13.7356 17.4015 14.2476C16.6495 14.7436 16.0655 15.4556 15.6495 16.3836C15.2495 17.2956 15.0495 18.3676 15.0495 19.5996C15.0495 20.8156 15.2495 21.8876 15.6495 22.8156C16.0655 23.7276 16.6495 24.4396 17.4015 24.9516C18.1535 25.4476 19.0255 25.6956 20.0175 25.6956Z" fill="white"/>
</svg>
