<svg width="30" height="30" viewBox="0 0 30 30" fill="none" xmlns="http://www.w3.org/2000/svg">
<circle cx="15" cy="15" r="15" fill="#434D54"/>
<mask id="mask0_1605_6535" style="mask-type:alpha" maskUnits="userSpaceOnUse" x="11" y="7" width="10" height="16">
<rect x="11" y="7" width="10" height="16" fill="#D9D9D9"/>
</mask>
<g mask="url(#mask0_1605_6535)">
<path d="M12.6464 8.28226C12.8417 8.087 13.1583 8.087 13.3536 8.28226L19.364 14.2927C19.7545 14.6832 19.7545 15.3164 19.364 15.7069L19.0104 16.0604C18.8151 16.2557 18.4986 16.2557 18.3033 16.0604L11.9393 9.69648C11.7441 9.50122 11.7441 9.18463 11.9393 8.98937L12.6464 8.28226Z" fill="white"/>
<path d="M18.3027 13.9395C18.498 13.7442 18.8145 13.7442 19.0098 13.9395L19.3634 14.293C19.7539 14.6836 19.7539 15.3167 19.3634 15.7073L13.3529 21.7177C13.1577 21.9129 12.8411 21.9129 12.6458 21.7177L11.9387 21.0106C11.7435 20.8153 11.7435 20.4987 11.9387 20.3035L18.3027 13.9395Z" fill="white"/>
</g>
</svg>
