<svg width="10" height="16" viewBox="0 0 10 16" fill="none" xmlns="http://www.w3.org/2000/svg">
<path d="M1.64645 1.28324C1.84171 1.08798 2.15829 1.08798 2.35355 1.28324L8.36396 7.29365C8.75448 7.68417 8.75449 8.31734 8.36396 8.70786L8.01041 9.06142C7.81515 9.25668 7.49856 9.25668 7.3033 9.06142L0.93934 2.69745C0.744078 2.50219 0.744078 2.18561 0.93934 1.99035L1.64645 1.28324Z" fill="white"/>
<path d="M7.3027 6.93949C7.49796 6.74423 7.81454 6.74423 8.0098 6.93949L8.36336 7.29304C8.75388 7.68357 8.75388 8.31673 8.36336 8.70726L2.35295 14.7177C2.15769 14.9129 1.8411 14.9129 1.64584 14.7177L0.938736 14.0106C0.743474 13.8153 0.743474 13.4987 0.938736 13.3035L7.3027 6.93949Z" fill="white"/>
</svg>
