<svg width="10" height="16" viewBox="0 0 10 16" fill="none" xmlns="http://www.w3.org/2000/svg">
<mask id="mask0_1605_13573" style="mask-type:alpha" maskUnits="userSpaceOnUse" x="0" y="0" width="10" height="16">
<rect width="10" height="16" transform="matrix(-1 0 0 1 10 0)" fill="#D9D9D9"/>
</mask>
<g mask="url(#mask0_1605_13573)">
<path d="M8.35355 1.28324C8.15829 1.08798 7.84171 1.08798 7.64645 1.28324L1.63604 7.29365C1.24552 7.68417 1.24551 8.31734 1.63604 8.70786L1.98959 9.06142C2.18485 9.25668 2.50144 9.25668 2.6967 9.06142L9.06066 2.69745C9.25592 2.50219 9.25592 2.18561 9.06066 1.99035L8.35355 1.28324Z" fill="white"/>
<path d="M2.6973 6.93949C2.50204 6.74423 2.18546 6.74423 1.9902 6.93949L1.63664 7.29304C1.24612 7.68357 1.24612 8.31673 1.63664 8.70726L7.64705 14.7177C7.84231 14.9129 8.1589 14.9129 8.35416 14.7177L9.06126 14.0106C9.25653 13.8153 9.25653 13.4987 9.06126 13.3035L2.6973 6.93949Z" fill="white"/>
</g>
</svg>
