<svg width="7" height="12" viewBox="0 0 7 12" fill="none" xmlns="http://www.w3.org/2000/svg">
<g id="arw-thin-min">
<mask id="mask0_959_21710" style="mask-type:alpha" maskUnits="userSpaceOnUse" x="-2" y="-2" width="10" height="16">
<rect id="Rectangle 910" x="-2" y="-2" width="10" height="16" fill="#D9D9D9"/>
</mask>
<g mask="url(#mask0_959_21710)">
<g id="Group 707">
<path id="Rectangle 908" d="M1.06149 0.696327C1.25675 0.501065 1.57333 0.501065 1.76859 0.696327L6.4823 5.41004C6.80774 5.73547 6.80774 6.26311 6.4823 6.58855C6.31958 6.75126 6.05576 6.75126 5.89305 6.58855L0.884709 1.58021C0.689447 1.38495 0.689447 1.06837 0.884709 0.873104L1.06149 0.696327Z" fill="#434D54"/>
<path id="Rectangle 971" d="M5.89287 5.41084C6.05559 5.24812 6.31941 5.24812 6.48213 5.41084C6.80756 5.73628 6.80756 6.26391 6.48213 6.58935L1.76869 11.3028C1.57342 11.4981 1.25684 11.4981 1.06158 11.3028L0.884803 11.126C0.689541 10.9308 0.689541 10.6142 0.884803 10.4189L5.89287 5.41084Z" fill="#434D54"/>
</g>
</g>
</g>
</svg>
