<svg width="16" height="16" viewBox="0 0 16 16" fill="none" xmlns="http://www.w3.org/2000/svg">
<g id="home">
<path id="Rectangle 1258" d="M5.59961 15.1895H6.39961V15.4995C6.39961 15.7756 6.17575 15.9995 5.89961 15.9995H5.59961V15.1895Z" fill="#434D54"/>
<path id="Rectangle 1259" d="M10.4004 15.1895H9.60039V15.4995C9.60039 15.7756 9.82425 15.9995 10.1004 15.9995H10.4004V15.1895Z" fill="#434D54"/>
<path id="Subtract" fill-rule="evenodd" clip-rule="evenodd" d="M0.421747 5.17091C0.15721 5.3584 0 5.66252 0 5.98676V15.3001C0 15.6867 0.313401 16.0001 0.7 16.0001H5.60039V15.191H6.40017V11.6407C6.40017 11.3645 6.62403 11.1407 6.90017 11.1407H9.10017C9.37632 11.1407 9.60017 11.3645 9.60017 11.6407L9.60017 15.1904H10.4002V16.0001H15.3C15.6866 16.0001 16 15.6867 16 15.3001V5.98676C16 5.66252 15.8428 5.3584 15.5783 5.17091L8.57825 0.209533C8.23184 -0.0359905 7.76816 -0.0359901 7.42175 0.209533L0.421747 5.17091Z" fill="#434D54"/>
</g>
</svg>
